<svg width="182" height="285" viewBox="0 0 182 285" fill="none" xmlns="http://www.w3.org/2000/svg">
<path d="M33.6115 86.9736C33.6115 86.9736 24.8098 82.6279 25.4784 88.3107C26.1469 93.9935 32.7223 99.2317 32.7223 99.2317L40.745 90.8746C38.2914 83.965 33.6115 86.9736 33.6115 86.9736Z" fill="#865A48"/>
<path d="M40.745 90.8746C38.2914 83.965 33.6115 86.9736 33.6115 86.9736C33.6115 86.9736 24.8098 82.6279 25.4784 88.3107" stroke="#FFF1D7" stroke-miterlimit="10" stroke-linecap="round"/>
<path d="M25.4783 88.3105C26.1468 93.9933 32.7222 99.2315 32.7222 99.2315" stroke="#2B4257" stroke-miterlimit="10" stroke-linecap="round"/>
<path d="M103.64 66.9934C103.64 66.9934 94.6749 148.114 36.5098 94.1137" stroke="#5173B7" stroke-miterlimit="10"/>
<path d="M40.7449 85.3857L29.0986 32.8633C29.0986 32.8633 28.2628 38.0647 16.2287 34.0533C4.19454 30.0419 1.07568 40.8861 1.07568 40.8861L20.9086 102.695C20.9086 102.695 32.0536 110.313 42.0821 95.9156L40.7449 85.3857Z" fill="#EFEEED"/>
<path d="M1.07568 40.886L20.9086 102.695C20.9086 102.695 32.0536 110.313 42.0821 95.9155" stroke="#2B4257" stroke-miterlimit="10" stroke-linecap="round"/>
<path d="M40.297 81.8556C40.297 81.8556 31.4954 77.51 32.1639 83.1928C32.8325 88.8756 39.4078 94.1138 39.4078 94.1138L47.4306 85.7567C44.977 78.8471 40.297 81.8556 40.297 81.8556Z" fill="#865A48"/>
<path d="M47.4306 85.7567C44.977 78.8471 40.297 81.8556 40.297 81.8556C40.297 81.8556 31.4954 77.51 32.1639 83.1928" stroke="#FFF1D7" stroke-miterlimit="10" stroke-linecap="round"/>
<path d="M32.1641 83.1929C32.8326 88.8757 39.408 94.1139 39.408 94.1139" stroke="#2B4257" stroke-miterlimit="10" stroke-linecap="round"/>
<path d="M128.417 245.915C117.263 244.277 106.341 241.333 95.8749 237.143C71.967 227.466 56.7338 212.53 51.8198 193.947C48.8514 182.729 50.3858 170.882 56.3727 158.761C60.6282 150.143 67.1935 141.341 75.8881 132.6C90.0416 118.369 105.272 108.866 105.913 108.485L112.96 119.867L120 131.216C119.866 131.299 106.478 139.68 94.5377 151.771C77.4526 169.077 75.9349 180.539 77.6732 187.111C81.016 199.757 94.6113 207.713 105.419 212.159C113.897 215.577 122.743 218.001 131.78 219.383L128.417 245.915Z" fill="#B25757"/>
<path d="M94.8721 151.43C106.726 139.523 119.866 131.293 120 131.213L116.403 125.409L97.8037 123.203C97.6466 124.497 96.3463 135.568 94.8721 151.43Z" fill="#2B4257"/>
<path d="M117.152 243.795C116.935 235.258 117.045 225.874 117.366 216.247C113.311 215.114 109.324 213.749 105.425 212.159C100.809 210.263 95.6777 207.719 91.0712 204.45C90.5932 214.709 90.2991 225.005 90.3091 234.716C92.1098 235.559 93.965 236.367 95.8749 237.143C102.784 239.909 109.898 242.133 117.152 243.795Z" fill="#2B4257"/>
<path d="M88.992 43.9279C88.992 43.9279 86.6286 54.1001 89.7709 58.7132C92.9533 63.3932 83.3126 68.6915 85.2614 73.4985C85.5264 74.1877 85.9763 74.7903 86.5618 75.2401C87.2905 75.8177 87.8064 76.6211 88.0285 77.524C88.2506 78.4269 88.1662 79.3779 87.7886 80.2276C86.6788 82.815 86.1172 85.8001 88.7915 86.6391C93.789 88.1969 105.262 70.3128 104.707 59.5322C104.152 48.7516 98.9302 39.0273 98.9302 39.0273" fill="#2B4257"/>
<path d="M88.992 43.928C88.992 43.928 86.6286 54.1002 89.7709 58.7133C92.9533 63.3932 83.3126 68.6916 85.2614 73.4986C85.5264 74.1877 85.9763 74.7904 86.5618 75.2402" stroke="#586977" stroke-miterlimit="10" stroke-linecap="round"/>
<path d="M114.264 63.965L103.64 64.0987V53.171L114.264 51.981V63.965Z" fill="#865A48"/>
<path d="M114.26 51.981V63.965" stroke="#2B4257" stroke-miterlimit="10" stroke-linecap="round"/>
<path d="M103.64 58.9005C106.702 58.3791 108.952 56.6374 108.952 54.5716C108.948 54.0579 108.812 53.5538 108.557 53.1074L103.64 53.1709V58.9005Z" fill="#2B4257"/>
<path d="M95.1962 32.8633L97.135 48.14H92.9531L95.1962 32.8633Z" fill="#865A48"/>
<path d="M92.9531 48.14L95.1962 32.8633" stroke="#FFF1D7" stroke-miterlimit="10" stroke-linecap="round"/>
<path d="M97.135 48.1399H92.9531" stroke="#2B4257" stroke-miterlimit="10" stroke-linecap="round"/>
<path d="M103.64 64.0986V53.1709" stroke="#FFF1D7" stroke-miterlimit="10" stroke-linecap="round"/>
<path d="M103.055 57.0686H102.099C101.191 57.0686 100.293 56.8896 99.4544 56.5419C98.616 56.1941 97.8544 55.6845 97.2133 55.0421C96.5721 54.3996 96.0639 53.6371 95.7178 52.798C95.3717 51.959 95.1944 51.0599 95.1962 50.1523V32.8465H111.242C112.025 32.8465 112.777 33.1579 113.331 33.712C113.885 34.2662 114.197 35.0178 114.197 35.8016V45.9203C114.197 48.877 113.022 51.7126 110.932 53.8033C108.841 55.8941 106.005 57.0686 103.048 57.0686H103.055Z" fill="#865A48"/>
<path d="M105.649 35.7682C105.649 35.7682 97.0147 45.3888 88.9919 43.928C88.9919 43.928 92.3348 28.4842 99.5753 26.8796C106.816 25.2751 113.224 30.0854 113.224 30.0854C113.224 30.0854 119.221 33.5385 118.87 38.8871C118.519 44.2356 114.397 53.4484 114.397 53.4484L109.136 48.0999C109.136 48.0999 104.703 41.2203 105.649 35.7682Z" fill="#2B4257"/>
<path d="M109.146 48.0897C109.146 48.0897 104.703 41.2202 105.649 35.7681" stroke="#586977" stroke-miterlimit="10" stroke-linecap="round"/>
<path d="M88.9919 43.928C88.9919 43.928 92.3348 28.4842 99.5753 26.8796" stroke="#586977" stroke-miterlimit="10" stroke-linecap="round"/>
<path d="M95.1963 48.6514V50.1657C95.1959 51.0723 95.3741 51.9701 95.7208 52.8078C96.0676 53.6455 96.576 54.4067 97.2171 55.0478C97.8582 55.6888 98.6194 56.1973 99.4571 56.544C100.295 56.8908 101.193 57.069 102.099 57.0686" stroke="#FFF1D7" stroke-miterlimit="10" stroke-linecap="round"/>
<path d="M101.173 44.4059C101.108 44.3514 101.048 44.2897 100.996 44.2221C100.914 44.1254 100.812 44.0487 100.696 43.9977C100.58 43.9468 100.454 43.9229 100.328 43.9279H97.0549V46.2478C97.0549 46.5773 97.1199 46.9036 97.2461 47.208C97.3723 47.5124 97.5573 47.789 97.7904 48.0218C98.0236 48.2547 98.3004 48.4393 98.6049 48.5651C98.9095 48.6908 99.2359 48.7554 99.5654 48.7549C100.23 48.7549 100.868 48.4908 101.338 48.0206C101.808 47.5504 102.073 46.9127 102.073 46.2478C102.074 45.8923 101.994 45.5411 101.838 45.2217C101.682 44.9022 101.455 44.623 101.173 44.4059Z" fill="#F4AB9D"/>
<path d="M97.0581 43.5002C97.2018 44.4395 98.0977 45.0412 99.261 44.8908C100 44.7853 100.681 44.4316 101.193 43.888C101.049 42.9486 100.154 42.3469 98.9936 42.4974C98.2528 42.6006 97.5697 42.9546 97.0581 43.5002Z" fill="#F7F7F7"/>
<path d="M97.0581 43.5002C97.2018 44.4396 98.0977 45.0413 99.261 44.8909C100 44.7853 100.681 44.4317 101.193 43.888" stroke="#2B4257" stroke-miterlimit="10" stroke-linecap="round"/>
<path d="M98.5318 43.9757C98.5654 43.8205 98.4932 43.6731 98.3705 43.6466C98.2478 43.62 98.1211 43.7243 98.0875 43.8794C98.0539 44.0346 98.1261 44.1819 98.2488 44.2085C98.3715 44.2351 98.4982 44.1308 98.5318 43.9757Z" fill="#2B4257"/>
<path d="M103.105 47.4045C104.065 47.4045 104.843 46.6263 104.843 45.6662C104.843 44.7062 104.065 43.928 103.105 43.928C102.145 43.928 101.367 44.7062 101.367 45.6662C101.367 46.6263 102.145 47.4045 103.105 47.4045Z" fill="#E57873"/>
<path d="M97.5027 41.0631C97.9776 40.8872 98.4905 40.84 98.9895 40.9263C99.4886 41.0126 99.9559 41.2293 100.344 41.5545" stroke="#2B4257" stroke-miterlimit="10" stroke-linecap="round"/>
<path d="M100.839 48.394C100.388 48.9404 99.8012 49.3587 99.1376 49.6069C98.4741 49.855 97.7569 49.9244 97.0581 49.8081" stroke="#2B4257" stroke-miterlimit="10" stroke-linecap="round"/>
<path d="M109.737 49.0291C111.323 49.0291 112.609 47.7435 112.609 46.1576C112.609 44.5717 111.323 43.2861 109.737 43.2861C108.152 43.2861 106.866 44.5717 106.866 46.1576C106.866 47.7435 108.152 49.0291 109.737 49.0291Z" fill="#865A48"/>
<path d="M109.737 47.6285C110.55 47.6285 111.208 46.9699 111.208 46.1576C111.208 45.3453 110.55 44.6868 109.737 44.6868C108.925 44.6868 108.267 45.3453 108.267 46.1576C108.267 46.9699 108.925 47.6285 109.737 47.6285Z" fill="#F4AB9D"/>
<path d="M91.7163 114.044H126.184V118.276C126.184 122.846 124.369 127.229 121.137 130.461C117.905 133.692 113.522 135.508 108.952 135.508C104.382 135.508 99.9985 133.692 96.7669 130.461C93.5352 127.229 91.7197 122.846 91.7197 118.276V114.044H91.7163Z" fill="#C16363"/>
<path d="M108.952 62.6746C113.52 62.6746 117.901 64.4883 121.132 67.717C124.363 70.9458 126.181 75.3255 126.184 79.8934V114.044H91.7163V79.8934C91.7199 75.3249 93.5374 70.9447 96.7694 67.7159C100.001 64.487 104.383 62.6737 108.952 62.6746Z" fill="#628ECC"/>
<path d="M126.184 81.7621L125.272 82.6747L120.749 78.1519L116.226 82.6747L111.703 78.1519L107.18 82.6747L102.657 78.1519L98.1379 82.6747L93.615 78.1519L91.7163 80.0506V83.9416L93.615 82.0462L98.1379 86.5657L102.657 82.0462L107.18 86.5657L111.703 82.0462L116.226 86.5657L120.749 82.0462L125.272 86.5657L126.184 85.6565V81.7621Z" fill="#2B4257"/>
<path d="M126.184 90.4301L125.272 91.3427L120.749 86.8198L116.226 91.3427L111.703 86.8198L107.18 91.3427L102.657 86.8198L98.1379 91.3427L93.615 86.8198L91.7163 88.7185V92.6096L93.615 90.7142L98.1379 95.2337L102.657 90.7142L107.18 95.2337L111.703 90.7142L116.226 95.2337L120.749 90.7142L125.272 95.2337L126.184 94.3245V90.4301Z" fill="#2B4257"/>
<path d="M108.952 62.6746C106.688 62.6741 104.447 63.1196 102.356 63.9856C100.264 64.8517 98.3641 66.1212 96.7635 67.7218C95.163 69.3223 93.8934 71.2225 93.0274 73.3139C92.1614 75.4052 91.7159 77.6466 91.7163 79.9101V114.044" stroke="#FFF1D7" stroke-miterlimit="10" stroke-linecap="round"/>
<path d="M126.184 99.098L125.272 100.011L120.749 95.4878L116.226 100.011L111.703 95.4878L107.18 100.011L102.657 95.4878L98.1379 100.011L93.615 95.4878L91.7163 97.3865V101.278L93.615 99.3822L98.1379 103.902L102.657 99.3822L107.18 103.902L111.703 99.3822L116.226 103.902L120.749 99.3822L125.272 103.902L126.184 102.992V99.098Z" fill="#2B4257"/>
<path d="M116.52 83.1929C116.52 83.1929 114.564 81.5984 113.866 81.5984L94.073 103.995C94.073 103.995 93.0702 104.941 91.7163 106.409V114.044H106.187C114.571 102.541 116.52 83.1929 116.52 83.1929Z" fill="#2B4257"/>
<path d="M180.676 283.902H79.4817" stroke="#2B4257" stroke-miterlimit="10" stroke-linecap="round"/>
<path d="M72.883 283.902H69.1423" stroke="#2B4257" stroke-miterlimit="10" stroke-linecap="round"/>
<path d="M87.9023 264.197C82.8713 218.577 93.5851 127.077 94.0531 123.203L120.608 126.359C120.501 127.278 109.788 218.687 114.484 261.272L87.9023 264.197Z" fill="#C16363"/>
<path d="M119.726 134.338C117.235 157.644 110.603 226.102 114.484 261.265" stroke="#2B4257" stroke-miterlimit="10" stroke-linecap="round"/>
<path d="M87.9023 264.197C82.8713 218.577 93.5851 127.077 94.0531 123.203" stroke="#FFF1D7" stroke-miterlimit="10" stroke-linecap="round"/>
<path d="M117.573 283.902L115.902 257.688L84.6462 261.699L89.4933 276.575L84.6462 283.902H117.573Z" fill="#2B4257"/>
<path d="M155.875 222.806L130.095 217.788L126.064 249.043L141.685 248.117L147.545 254.663L155.875 222.806Z" fill="#2B4257"/>
<path d="M81.1196 117.734C76.5366 117.734 71.7196 116.785 66.7021 114.886C57.4892 111.4 47.3304 104.523 36.5063 94.4949L47.8753 82.2334C63.6969 96.9251 77.1684 103.317 85.813 100.238C96.052 96.5875 100.582 79.713 101.36 74.0903L117.914 76.3835C117.02 81.9341 115.486 87.3624 113.341 92.5594C108.38 104.547 100.795 112.653 91.4289 115.996C88.1184 117.165 84.6306 117.754 81.1196 117.734Z" fill="#628ECC"/>
<path d="M91.4288 115.996C88.1191 117.17 84.6312 117.763 81.1195 117.747C76.5365 117.747 71.7195 116.798 66.7019 114.899" stroke="#2B4257" stroke-miterlimit="10" stroke-linecap="round"/>
<path d="M117.917 76.3867C117.024 81.9373 115.489 87.3656 113.344 92.5626C108.38 104.547 100.796 112.653 91.429 115.996" stroke="#2B4257" stroke-miterlimit="10" stroke-linecap="round"/>
<path d="M116.758 61.0132H101.193V67.3144H116.758V61.0132Z" fill="#628ECC"/>
<path d="M4.86307 19.1143C4.86453 15.9187 5.66714 12.7745 7.19749 9.96924C8.72785 7.16394 10.9371 4.7871 13.6232 3.05607C16.3093 1.32505 19.3866 0.295099 22.5735 0.0604113C25.7605 -0.174277 28.9554 0.39379 31.8661 1.71266C34.7768 3.03153 37.3104 5.05911 39.2352 7.60996C41.16 10.1608 42.4145 13.1535 42.8841 16.3144C43.3536 19.4753 43.0232 22.7035 41.9231 25.7037C40.8229 28.7039 38.9881 31.3804 36.5864 33.4884C31.3048 38.1082 26.9391 43.7008 24.0241 50.0956L23.9773 50.1992L23.9305 50.0956C21.0896 43.7962 16.8911 38.2028 11.6356 33.7158C9.50973 31.9235 7.80185 29.6877 6.63187 27.1653C5.4619 24.6428 4.85817 21.8949 4.86307 19.1143Z" fill="#A7C0C6"/>
<path d="M43.0816 18.469C43.1796 21.2959 42.6476 24.1091 41.5243 26.7051C40.4009 29.301 38.7143 31.6146 36.5865 33.4783C31.3048 38.1081 26.9391 43.7006 24.0242 50.0954" stroke="#FFF1D7" stroke-miterlimit="10" stroke-linecap="round"/>
<path d="M23.9305 50.0955C21.0896 43.7961 16.8911 38.2027 11.6356 33.7157C9.50973 31.9235 7.80185 29.6876 6.63187 27.1652C5.4619 24.6428 4.85817 21.8948 4.86307 19.1143" stroke="#2B4257" stroke-miterlimit="10" stroke-linecap="round"/>
<path d="M23.9774 25.6696C27.5978 25.6696 30.5327 22.7347 30.5327 19.1144C30.5327 15.494 27.5978 12.5591 23.9774 12.5591C20.357 12.5591 17.4221 15.494 17.4221 19.1144C17.4221 22.7347 20.357 25.6696 23.9774 25.6696Z" fill="white"/>
<path d="M23.9774 61.3175C25.3915 61.3175 26.538 60.1711 26.538 58.7569C26.538 57.3427 25.3915 56.1963 23.9774 56.1963C22.5632 56.1963 21.4167 57.3427 21.4167 58.7569C21.4167 60.1711 22.5632 61.3175 23.9774 61.3175Z" fill="#A7C0C6"/>
<path d="M23.9773 12.5591C23.1162 12.5586 22.2634 12.7279 21.4677 13.0571C20.672 13.3864 19.9489 13.8691 19.3399 14.4779C18.7308 15.0867 18.2477 15.8094 17.918 16.605C17.5884 17.4005 17.4187 18.2532 17.4187 19.1144" stroke="#FFF1D7" stroke-miterlimit="10" stroke-linecap="round"/>
<path d="M30.5326 19.1144C30.5326 18.2535 30.363 17.4011 30.0336 16.6058C29.7041 15.8104 29.2213 15.0878 28.6126 14.4791C28.0039 13.8704 27.2812 13.3875 26.4859 13.0581C25.6906 12.7286 24.8381 12.5591 23.9773 12.5591" stroke="#2B4257" stroke-miterlimit="10" stroke-linecap="round"/>
</svg>
