<svg width="296" height="285" viewBox="0 0 296 285" fill="none" xmlns="http://www.w3.org/2000/svg">
<path d="M291.7 101.121H134.844C133.11 101.121 131.705 102.527 131.705 104.26V104.264C131.705 105.998 133.11 107.403 134.844 107.403H291.7C293.433 107.403 294.839 105.998 294.839 104.264V104.26C294.839 102.527 293.433 101.121 291.7 101.121Z" fill="#3D6982"/>
<path d="M291.696 101.137H234.749C235.581 101.137 236.379 101.468 236.968 102.057C237.557 102.645 237.887 103.444 237.887 104.276C237.887 105.109 237.557 105.907 236.968 106.496C236.379 107.085 235.581 107.415 234.749 107.415H291.696C292.528 107.415 293.327 107.085 293.915 106.496C294.504 105.907 294.835 105.109 294.835 104.276C294.835 103.444 294.504 102.645 293.915 102.057C293.327 101.468 292.528 101.137 291.696 101.137Z" fill="#2B4257"/>
<path d="M294.839 104.26C294.839 104.673 294.757 105.081 294.599 105.462C294.441 105.843 294.21 106.19 293.918 106.481C293.626 106.773 293.28 107.004 292.898 107.161C292.517 107.319 292.108 107.4 291.696 107.399H134.848C134.435 107.4 134.027 107.319 133.646 107.161C133.264 107.004 132.918 106.773 132.626 106.481C132.334 106.19 132.102 105.843 131.944 105.462C131.786 105.081 131.705 104.673 131.705 104.26" stroke="#2B4257" stroke-miterlimit="10" stroke-linecap="round"/>
<path d="M121.942 145.239L51.8669 48.5823C51.8669 48.5823 40.9876 21.5613 23.6612 39.9917C6.33489 58.4221 -29.1801 165.608 50.2552 176.487C131.411 187.58 140.203 154.91 121.942 145.239Z" fill="#5BC0C3"/>
<path d="M121.961 161.141C127.62 150.457 115.665 133.033 95.2587 122.224C74.8521 111.415 53.7215 111.313 48.0622 121.997C42.4029 132.681 54.3579 150.105 74.7645 160.914C95.1711 171.724 116.302 171.825 121.961 161.141Z" fill="#2B4257"/>
<path d="M23.6612 39.9917C6.33489 58.4261 -29.1801 165.608 50.2552 176.487C131.411 187.592 140.203 154.922 121.942 145.251" stroke="#2B4257" stroke-miterlimit="10" stroke-linecap="round"/>
<path d="M131.411 63.7973C131.411 63.7973 141.944 50.5004 151.586 55.0657C161.228 59.6309 162.494 63.9303 160.721 63.7973C158.948 63.6644 153.44 61.7826 153.44 61.7826C153.44 61.7826 148.604 68.7857 142.024 69.8414" fill="#865A48"/>
<path d="M160.721 63.7972C158.948 63.6642 153.44 61.7825 153.44 61.7825C153.44 61.7825 148.604 68.7855 142.024 69.8412" stroke="#2B4257" stroke-miterlimit="10" stroke-linecap="round"/>
<path d="M147.67 84.6654C147.67 84.6654 161.232 78.1821 167.277 82.0704C173.321 85.9588 173.321 93.8685 171.173 92.8692C169.958 92.3535 168.96 91.4302 168.352 90.2582C168.352 90.2582 161.748 100.614 150.277 96.1048" fill="#865A48"/>
<path d="M171.169 92.8693C169.954 92.3537 168.956 91.4303 168.348 90.2583C168.348 90.2583 161.744 100.614 150.272 96.1049" stroke="#2B4257" stroke-miterlimit="10" stroke-linecap="round"/>
<path d="M101.029 222.386L89.6222 201.066C107.702 191.396 120.745 182.309 128.393 174.069C132.849 169.27 135.307 164.826 135.134 161.872C134.872 157.44 127.567 153.58 126.233 153.056L135.058 130.552C139.029 132.2 142.752 134.39 146.122 137.059C154.181 143.434 158.742 151.525 159.266 160.45C159.854 170.378 155.422 180.5 146.102 190.529C136.5 200.873 121.757 211.289 101.029 222.386Z" fill="#F4AB9D"/>
<path d="M89.6222 201.066C107.702 191.396 120.745 182.309 128.393 174.069" stroke="#2B4257" stroke-miterlimit="10" stroke-linecap="round"/>
<path d="M111.977 94.2876C110.965 94.2873 109.954 94.2348 108.947 94.1304C85.0126 91.6322 71.5585 59.7074 70.0999 56.0769L88.8043 48.5823L79.452 52.3296L88.7962 48.5662C92.0197 56.4799 101.658 73.1454 111.055 74.0923C118.42 74.8619 126.366 64.7441 130.424 58.6557L147.17 69.8494C136.323 86.0838 124.497 94.2876 111.977 94.2876Z" fill="#BC5B5B"/>
<path d="M88.8042 48.5864H88.7478L82.2565 51.2015C78.896 54.288 76.3293 59.8405 75.2534 66.5696C79.9275 74.7694 87.6639 85.5077 98.2451 90.895C100.566 86.3982 101.992 80.3299 101.992 73.6452C101.993 71.9976 101.904 70.3512 101.726 68.7132C95.8919 62.9069 90.9358 53.8367 88.8042 48.5864Z" fill="#2B4257"/>
<path d="M147.17 69.8494C136.323 86.0838 124.497 94.2876 111.977 94.2876" stroke="#2B4257" stroke-miterlimit="10" stroke-linecap="round"/>
<path d="M158.069 261.91L136.117 251.78C145.707 230.989 147.432 213.118 141.223 198.649C132.31 177.837 109.39 169.798 109.145 169.718H109.197L116.788 146.75C118.138 147.198 149.962 158.033 163.32 188.797C172.487 209.931 170.714 234.51 158.069 261.91Z" fill="#865A48"/>
<path d="M116.804 146.794C118.154 147.242 149.978 158.077 163.336 188.841C172.487 209.931 170.714 234.51 158.069 261.91" stroke="#FFF1D7" stroke-miterlimit="10" stroke-linecap="round"/>
<path d="M136.117 251.772C145.707 230.989 147.432 213.118 141.223 198.649C132.31 177.837 109.39 169.798 109.145 169.718" stroke="#2B4257" stroke-miterlimit="10" stroke-linecap="round"/>
<path d="M53.8051 104.26H95.352V109.361C95.3541 112.091 94.8184 114.793 93.7755 117.315C92.7326 119.837 91.2029 122.129 89.2739 124.06C87.3449 125.99 85.0543 127.521 82.5332 128.566C80.012 129.611 77.3097 130.149 74.5806 130.149C69.0716 130.149 63.7883 127.961 59.8929 124.065C55.9975 120.17 53.8091 114.887 53.8091 109.378V104.26H53.8051Z" fill="#E57873"/>
<path d="M74.5806 42.3408C80.0895 42.3408 85.3728 44.5292 89.2682 48.4246C93.1636 52.3201 95.352 57.6034 95.352 63.1123V104.26H53.8051V63.1123C53.8051 60.3842 54.3425 57.6828 55.3866 55.1625C56.4307 52.6421 57.9611 50.3521 59.8903 48.4232C61.8195 46.4944 64.1098 44.9644 66.6304 43.9208C69.151 42.8772 71.8525 42.3403 74.5806 42.3408Z" fill="#E57873"/>
<path d="M95.352 76.2197H91.8626H90.8432H85.2826H84.2632H78.7026H77.6832H72.1226H71.1032H65.5426H64.5232H58.9627H57.9432H53.8051V78.6615L55.163 80.0194L58.4509 76.7274L61.7429 80.0194L65.0309 76.7274L68.3229 80.0194L71.6109 76.7274L74.9029 80.0194L78.1909 76.7274L81.4829 80.0194L84.7709 76.7274L88.0629 80.0194L91.3508 76.7274L94.6429 80.0194L95.352 79.3062V76.2197Z" fill="#BC5B5B"/>
<path d="M95.352 84.2625H91.8626H90.8432H85.2826H84.2632H78.7026H77.6832H72.1226H71.1032H65.5426H64.5232H58.9627H57.9432H53.8051V86.7083L55.163 88.0622L58.4509 84.7702L61.7429 88.0622L65.0309 84.7702L68.3229 88.0622L71.6109 84.7702L74.9029 88.0622L78.1909 84.7702L81.4829 88.0622L84.7709 84.7702L88.0629 88.0622L91.3508 84.7702L94.6429 88.0622L95.352 87.349V84.2625Z" fill="#BC5B5B"/>
<path d="M95.352 92.3052H91.8626H90.8432H85.2826H84.2632H78.7026H77.6832H72.1226H71.1032H65.5426H64.5232H58.9627H57.9432H53.8051V94.751L55.163 96.1049L58.4509 92.8169L61.7429 96.1049L65.0309 92.8169L68.3229 96.1049L71.6109 92.8169L74.9029 96.1049L78.1909 92.8169L81.4829 96.1049L84.7709 92.8169L88.0629 96.1049L91.3508 92.8169L94.6429 96.1049L95.352 95.3957V92.3052Z" fill="#BC5B5B"/>
<path d="M83.4412 86.1604C83.4412 86.1604 84.0939 99.7032 94.1513 104.26H95.3601V88.4169L83.4412 86.1604Z" fill="#2B4257"/>
<path d="M95.352 104.26V63.1123C95.352 57.6034 93.1636 52.32 89.2682 48.4246C85.3728 44.5292 80.0895 42.3408 74.5806 42.3408" stroke="#FFF1D7" stroke-miterlimit="10" stroke-linecap="round"/>
<path d="M69.1248 43.896L81.9301 44.0572V30.8851L69.1248 29.4507V43.896Z" fill="#865A48"/>
<path d="M69.1288 29.4507V43.896" stroke="#2B4257" stroke-miterlimit="10" stroke-linecap="round"/>
<path d="M81.9302 37.7915C78.2392 37.1589 75.5436 35.0556 75.5436 32.5694C75.5495 31.9516 75.7131 31.3454 76.019 30.8086L81.9463 30.8852L81.9302 37.7915Z" fill="#2B4257"/>
<path d="M92.1084 6.40259L89.7714 24.8169H94.8121L92.1084 6.40259Z" fill="#865a48"/>
<path d="M89.7714 24.821H94.8121" stroke="#2B4257" stroke-miterlimit="10" stroke-linecap="round"/>
<path d="M81.9302 44.0573V30.8853" stroke="#FFF1D7" stroke-miterlimit="10" stroke-linecap="round"/>
<path d="M69.4149 38.8755C69.4149 38.8755 82.1356 38.9601 86.3584 46.0075C90.5812 53.0549 63.5723 47.9497 63.5723 47.9497" fill="#E57873"/>
<path d="M72.7592 6.40259H92.1003V27.2627C92.1003 29.4695 91.2236 31.5859 89.6632 33.1463C88.1028 34.7067 85.9864 35.5834 83.7796 35.5834H82.6353C79.0741 35.5834 75.6585 34.1698 73.1389 31.6532C70.6192 29.1366 69.2015 25.7227 69.1973 22.1615V9.96859C69.1973 9.0239 69.5725 8.1179 70.2405 7.4499C70.9085 6.7819 71.8145 6.40662 72.7592 6.40662V6.40259Z" fill="#865A48"/>
<path d="M96.1861 18.3176C96.1861 18.3176 98.0316 7.84122 86.3585 2.5587C84.7159 1.75893 83.0045 1.10891 81.2452 0.616533H81.2008C77.3936 -0.405323 73.355 -0.136083 69.7171 1.38212C58.0883 6.31811 54.7036 21.2107 68.8871 33.0047L76.0191 20.1107C76.0191 20.1107 81.5353 16.0813 82.5708 12.3138C82.9236 11.3563 83.4313 10.4633 84.0738 9.67056" fill="#2B4257"/>
<path d="M96.1861 18.3175C96.1861 18.3175 98.0315 7.84112 86.3584 2.55859" stroke="#586977" stroke-miterlimit="10" stroke-linecap="round"/>
<path d="M76.0231 20.0783C76.0231 20.0783 81.5393 16.0489 82.5748 12.2815C82.9295 11.3355 83.4358 10.4536 84.0738 9.67041" stroke="#586977" stroke-miterlimit="10" stroke-linecap="round"/>
<path d="M92.1084 25.4333V27.2627C92.1089 28.3555 91.8941 29.4378 91.4761 30.4475C91.0581 31.4573 90.4453 32.3747 89.6725 33.1475C88.8998 33.9202 87.9823 34.5331 86.9725 34.9511C85.9628 35.369 84.8806 35.5839 83.7877 35.5834" stroke="#FFF1D7" stroke-miterlimit="10" stroke-linecap="round"/>
<path d="M84.9038 20.3202C84.9829 20.2544 85.0546 20.1801 85.1173 20.0985C85.2159 19.9821 85.3396 19.8896 85.4793 19.8281C85.6189 19.7667 85.7708 19.7379 85.9232 19.744H89.868V22.5403C89.868 22.9375 89.7897 23.3309 89.6375 23.6978C89.4854 24.0647 89.2625 24.398 88.9814 24.6787C88.7004 24.9594 88.3667 25.1819 87.9996 25.3335C87.6325 25.4851 87.2391 25.5629 86.8419 25.5624C86.0404 25.5624 85.2717 25.244 84.705 24.6773C84.1383 24.1105 83.8199 23.3418 83.8199 22.5403C83.8175 22.1118 83.9141 21.6885 84.1021 21.3034C84.2901 20.9184 84.5644 20.5819 84.9038 20.3202Z" fill="#F4AB9D"/>
<path d="M89.864 19.2282C89.6907 20.3605 88.6108 21.0858 87.2086 20.9045C86.3177 20.7772 85.4965 20.351 84.8796 19.6956C85.0529 18.5634 86.1328 17.8381 87.531 18.0194C88.4239 18.1439 89.2473 18.5705 89.864 19.2282Z" fill="#F7F7F7"/>
<path d="M89.864 19.2283C89.6907 20.3605 88.6108 21.0858 87.2086 20.9045C86.3177 20.7773 85.4965 20.351 84.8796 19.6957" stroke="#2B4257" stroke-miterlimit="10" stroke-linecap="round"/>
<path d="M88.3016 19.5686C88.4495 19.5365 88.5365 19.3589 88.496 19.1719C88.4555 18.9849 88.3028 18.8592 88.1549 18.8912C88.007 18.9233 87.9199 19.1008 87.9604 19.2879C88.0009 19.4749 88.1537 19.6006 88.3016 19.5686Z" fill="#2B4257"/>
<path d="M82.5749 23.9345C83.7321 23.9345 84.6702 22.9964 84.6702 21.8392C84.6702 20.682 83.7321 19.7439 82.5749 19.7439C81.4177 19.7439 80.4796 20.682 80.4796 21.8392C80.4796 22.9964 81.4177 23.9345 82.5749 23.9345Z" fill="#E57873"/>
<path d="M89.3281 16.2908C88.7556 16.0787 88.1373 16.0218 87.5358 16.1258C86.9343 16.2298 86.371 16.4911 85.9031 16.8831" stroke="#2B4257" stroke-miterlimit="10" stroke-linecap="round"/>
<path d="M87.1885 25.8364C87.5064 26.2249 87.9212 26.5226 88.3909 26.6994C88.8607 26.8763 89.3688 26.9261 89.864 26.8438" stroke="#2B4257" stroke-miterlimit="10" stroke-linecap="round"/>
<path d="M72.7431 26.0178C72.7431 26.0178 68.9998 37.3928 71.1878 45.4878C72.2797 49.5172 70.3134 52.0557 67.5613 53.2927C62.9799 55.3396 59.4623 59.1917 57.4597 63.7933C56.2508 66.5292 54.2362 68.6285 50.7024 68.149C41.5718 66.9402 44.4931 22.8709 66.1349 3.40088" fill="#2B4257"/>
<path d="M72.7432 26.0178C72.7432 26.0178 68.9999 37.3928 71.1878 45.4878C72.2798 49.5172 70.3135 52.0557 67.5614 53.2927" stroke="#586977" stroke-miterlimit="10" stroke-linecap="round"/>
<path d="M74.5805 25.8929C76.4921 25.8929 78.0417 24.3433 78.0417 22.4317C78.0417 20.5201 76.4921 18.9705 74.5805 18.9705C72.6689 18.9705 71.1193 20.5201 71.1193 22.4317C71.1193 24.3433 72.6689 25.8929 74.5805 25.8929Z" fill="#865A48"/>
<path d="M74.5805 24.2045C75.5597 24.2045 76.3535 23.4108 76.3535 22.4316C76.3535 21.4525 75.5597 20.6587 74.5805 20.6587C73.6014 20.6587 72.8076 21.4525 72.8076 22.4316C72.8076 23.4108 73.6014 24.2045 74.5805 24.2045Z" fill="#F4AB9D"/>
<path d="M180.606 283.834H58.6282" stroke="#2B4257" stroke-miterlimit="10" stroke-linecap="round"/>
<path d="M50.6742 283.834H46.1653" stroke="#2B4257" stroke-miterlimit="10" stroke-linecap="round"/>
<path d="M53.805 104.26H95.352C95.352 104.26 116.768 112.202 150.273 139.949L115.664 174.642C115.664 174.642 50.8797 153.519 53.805 104.26Z" fill="#E57873"/>
<path d="M150.273 139.948L115.664 174.641" stroke="#2B4257" stroke-miterlimit="10" stroke-linecap="round"/>
<path d="M95.3521 104.26C95.3521 104.26 116.768 112.202 150.273 139.949" stroke="#FFF1D7" stroke-miterlimit="10" stroke-linecap="round"/>
<path d="M115.664 174.642C115.664 174.642 50.8797 153.519 53.805 104.26" stroke="#2B4257" stroke-miterlimit="10" stroke-linecap="round"/>
<path d="M133.812 101.077C109.012 101.077 91.9875 92.6758 81.3902 84.6654C66.7998 73.6289 61.0015 61.1458 60.389 59.7597L78.8194 51.6204L78.7872 51.5479C78.8315 51.6446 83.28 61.1217 94.3285 69.1764C109.084 79.9389 128.349 83.3518 151.586 79.3224L155.031 99.1711C148.026 100.413 140.927 101.051 133.812 101.077Z" fill="#E57873"/>
<path d="M81.3903 84.6655C76.4042 80.9048 71.9027 76.5414 67.9885 71.6748" stroke="#2B4257" stroke-miterlimit="10" stroke-linecap="round"/>
<path d="M94.3286 69.1765C109.084 79.939 128.349 83.3519 151.586 79.3225" stroke="#FFF1D7" stroke-miterlimit="10" stroke-linecap="round"/>
<path d="M155.031 99.1713C148.026 100.413 140.927 101.051 133.813 101.077C109.012 101.077 91.9875 92.6759 81.3903 84.6655" stroke="#2B4257" stroke-miterlimit="10" stroke-linecap="round"/>
<path d="M162.034 259.355L134.747 247.046L123.352 270.638L152.634 283.834L150.486 277.625L162.034 259.355Z" fill="#E57873"/>
<path d="M134.747 247.046L123.352 270.638L152.634 283.834" stroke="#2B4257" stroke-miterlimit="10" stroke-linecap="round"/>
<path d="M147.162 270.17L149.781 272.487L148.471 268.055L151.695 269.465L149.781 265.44L152.634 267.047V263.219" stroke="#2B4257" stroke-miterlimit="10" stroke-linecap="round"/>
<path d="M110.825 220.746L94.4374 195.691L72.1428 209.46L89.7391 236.328L91.2663 229.937L110.825 220.746Z" fill="#E57873"/>
<path d="M94.4374 195.691L72.1428 209.46L89.7391 236.328" stroke="#2B4257" stroke-miterlimit="10" stroke-linecap="round"/>
<path d="M92.4711 221.866L93.4341 225.226L94.7114 220.782L96.6737 223.707L97.2217 219.283L98.765 222.172L100.824 218.945" stroke="#2B4257" stroke-miterlimit="10" stroke-linecap="round"/>
<path d="M144.643 57.8218C144.643 57.8218 149.745 59.4335 149.813 60.9768C149.882 62.52 147.17 61.9801 147.17 61.9801C147.17 61.9801 147.706 65.5219 144.643 65.8161" stroke="#2B4257" stroke-miterlimit="10" stroke-linecap="round"/>
<path d="M71.3772 178.748V283.834" stroke="#2B4257" stroke-miterlimit="10" stroke-linecap="round"/>
<path d="M55.0905 223.429H81.2814" stroke="#2B4257" stroke-miterlimit="10" stroke-linecap="round"/>
<path d="M210.749 55.2226L185.324 92.7604C185.005 93.2305 184.575 93.6155 184.073 93.8816C183.571 94.1478 183.011 94.2872 182.443 94.2875H145.373C144.551 94.2875 143.738 94.4494 142.979 94.7639C142.22 95.0785 141.53 95.5395 140.949 96.1206C140.369 96.7017 139.908 97.3916 139.594 98.1508C139.28 98.91 139.119 99.7236 139.119 100.545V101.137H234.213C236.012 101.137 237.783 100.696 239.373 99.8533C240.962 99.0105 242.321 97.7913 243.331 96.3022L271.613 54.5497C271.808 54.262 271.92 53.9268 271.939 53.58C271.957 53.2332 271.881 52.8879 271.719 52.5811C271.556 52.2743 271.313 52.0176 271.015 51.8384C270.718 51.6592 270.377 51.5644 270.03 51.564H217.648C216.287 51.5668 214.948 51.9014 213.746 52.539C212.543 53.1766 211.515 54.0977 210.749 55.2226Z" fill="#C3D8DD"/>
<path d="M145.377 94.2875C144.555 94.2875 143.742 94.4494 142.983 94.7639C142.224 95.0785 141.534 95.5395 140.953 96.1206C140.373 96.7017 139.912 97.3916 139.598 98.1508C139.284 98.91 139.123 99.7236 139.123 100.545V101.137H234.217C236.016 101.137 237.787 100.696 239.377 99.8533C240.966 99.0105 242.325 97.7913 243.335 96.3022L271.617 54.5497C271.812 54.262 271.924 53.9268 271.943 53.58C271.961 53.2332 271.885 52.8879 271.723 52.5811C271.56 52.2743 271.317 52.0176 271.019 51.8384C270.722 51.6592 270.381 51.5644 270.034 51.564" stroke="#2B4257" stroke-miterlimit="10" stroke-linecap="round"/>
<path d="M270.05 51.5479H217.668C216.301 51.5478 214.955 51.8828 213.748 52.5234C212.54 53.164 211.508 54.0908 210.742 55.2227L185.316 92.7604C184.998 93.2294 184.569 93.6136 184.069 93.8798C183.568 94.1459 183.01 94.2858 182.443 94.2875H145.373" stroke="#FFF1D7" stroke-miterlimit="10" stroke-linecap="round"/>
<path d="M233.189 107.399L206.877 133.711C198.366 142.219 193.583 153.759 193.58 165.793V283.854H229.152" stroke="#2B4257" stroke-miterlimit="10" stroke-linecap="round"/>
<path d="M284.874 107.399L258.566 133.711C254.351 137.923 251.008 142.924 248.726 148.429C246.445 153.934 245.27 159.834 245.269 165.793V283.854H280.837" stroke="#2B4257" stroke-miterlimit="10" stroke-linecap="round"/>
<path d="M197.058 212.885H245.277" stroke="#2B4257" stroke-miterlimit="10" stroke-linecap="round"/>
</svg>
