<svg width="250" height="285" viewBox="0 0 250 285" fill="none" xmlns="http://www.w3.org/2000/svg">
<path d="M218.523 18.4863C218.523 18.4863 239.066 30.0892 248.993 22.0458C248.993 22.0458 252.224 35.8092 239.759 41.5293C227.294 47.2493 225.234 68.2529 225.234 68.2529C225.234 68.2529 196.363 65.6352 193.825 54.711C193.825 54.711 193.133 44.7113 205.134 38.4823C217.135 32.2532 218.523 18.4863 218.523 18.4863Z" fill="#EFEEED"/>
<path d="M248.993 22.0457C248.993 22.0457 252.224 35.8091 239.759 41.5292C227.294 47.2492 225.234 68.2527 225.234 68.2527" stroke="#2B4257" stroke-miterlimit="10" stroke-linecap="round"/>
<path d="M87.6582 12.1326C87.6582 5.43195 82.2271 0 75.5274 0C68.8277 0 63.3965 5.43195 63.3965 12.1326V109.834C63.3965 116.535 68.8277 121.967 75.5274 121.967C82.2271 121.967 87.6582 116.535 87.6582 109.834V12.1326Z" fill="#EFEEED"/>
<path d="M86.4879 48.5407C86.4879 48.5407 86.4014 38.4164 80.5151 38.1532C74.6289 37.8901 67.5307 35.584 68.0501 37.343C68.5695 39.1019 74.8158 40.9024 74.8158 40.9024C74.8158 40.9024 68.2371 51.4769 78.3511 54.3335" fill="#865A48"/>
<path d="M74.8158 40.8992C74.8158 40.8992 68.237 51.4736 78.351 54.3302" stroke="#2B4257" stroke-miterlimit="10" stroke-linecap="round"/>
<path d="M180.896 258.24L166.125 263.78C166.125 263.78 172.358 275.321 163.123 276.477C153.889 277.634 156.642 283.89 156.642 283.89H190.363L180.896 258.24Z" fill="#E57873"/>
<path d="M190.363 283.89L180.896 258.24" stroke="#2B4257" stroke-miterlimit="10" stroke-linecap="round"/>
<path d="M143.965 258.24L127.546 262.163C127.546 262.163 131.268 274.628 123.19 276.013C115.112 277.398 116.958 283.89 116.958 283.89H150.198L143.965 258.24Z" fill="#C16B6B"/>
<path d="M150.198 283.89L143.965 258.24" stroke="#2B4257" stroke-miterlimit="10" stroke-linecap="round"/>
<path d="M217.474 64.122C217.474 64.122 216.349 61.6117 213.925 61.8714C211.501 62.1311 210.463 67.0651 210.463 67.0651L207.866 70.5276L215.137 77.2795C218.08 74.2498 228.381 66.5458 230.718 63.4295C233.056 60.3133 217.474 64.122 217.474 64.122Z" fill="#865A48"/>
<path d="M215.137 77.2797C218.08 74.25 228.381 66.5459 230.718 63.4297" stroke="#2B4257" stroke-miterlimit="10" stroke-linecap="round"/>
<path d="M189.951 90.1047C188.215 90.1041 186.481 90.0036 184.757 89.8034C158.82 86.8014 139.488 61.8299 138.678 60.7669L152.442 50.2617L145.562 55.5143L152.442 50.2478C152.597 50.4521 168.227 70.5 186.817 72.6121C194.463 73.4812 201.526 71.1475 208.41 65.4828L219.41 78.8481C210.321 86.3305 200.432 90.1047 189.951 90.1047Z" fill="#C16B6B"/>
<path d="M160.932 80.8355C160.824 70.3026 157.497 61.8506 153.408 61.8506C150.873 61.8506 148.629 65.1053 147.265 70.0844C151.462 74.102 156.039 77.7026 160.932 80.8355Z" fill="#2B4257"/>
<path d="M146.576 50.3033L133.045 50.4729V36.5537L146.576 35.0371V50.3033Z" fill="#865A48"/>
<path d="M146.576 35.0405V50.3032" stroke="#2B4257" stroke-miterlimit="10" stroke-linecap="round"/>
<path d="M127.113 16.1941L129.122 32.0177H124.794L127.113 16.1941Z" fill="#F39B92"/>
<path d="M129.122 32.0178H124.794" stroke="#2B4257" stroke-miterlimit="10" stroke-linecap="round"/>
<path d="M133.045 50.473V36.5537" stroke="#FFF1D7" stroke-miterlimit="10" stroke-linecap="round"/>
<path d="M135.254 41.2695H134.264C133.325 41.2695 132.395 41.0846 131.527 40.7253C130.66 40.3659 129.872 39.8393 129.208 39.1753C128.544 38.5114 128.017 37.7232 127.658 36.8557C127.298 35.9882 127.113 35.0584 127.113 34.1195V16.1941L143.733 16.1941C144.545 16.1941 145.324 16.5166 145.898 17.0906C146.472 17.6646 146.794 18.4432 146.794 19.2549V29.7186C146.794 31.2351 146.496 32.7366 145.915 34.1376C145.335 35.5386 144.484 36.8116 143.412 37.8839C142.34 38.9562 141.067 39.8068 139.666 40.3871C138.265 40.9674 136.763 41.2661 135.247 41.2661L135.254 41.2695Z" fill="#865A48"/>
<path d="M143.065 14.8022H143.017C142.445 14.636 130.763 11.3016 126.653 15.2419C123.267 18.4863 126.861 20.9862 128.405 21.8449C128.463 21.8732 128.527 21.8847 128.591 21.8783C128.655 21.8718 128.716 21.8476 128.768 21.8084C128.819 21.7692 128.858 21.7165 128.881 21.6563C128.903 21.5961 128.909 21.5307 128.897 21.4675C128.885 21.4003 128.893 21.3311 128.92 21.2686C128.947 21.206 128.992 21.1529 129.05 21.1159C129.107 21.0789 129.174 21.0597 129.242 21.0606C129.311 21.0616 129.377 21.0827 129.433 21.1213C130.611 22.0458 132.979 23.7528 134.824 24.0921L135.326 24.1821C135.408 24.1936 135.482 24.2357 135.534 24.2998C136.403 25.3975 138.508 28.531 137.674 32.2636C136.635 36.8826 131.75 30.8509 125.756 32.0282C125.711 32.0375 125.668 32.0558 125.63 32.0819C125.592 32.1081 125.559 32.1416 125.534 32.1805C124.884 33.2193 120.538 40.5667 125.787 44.5347C131.137 48.5789 141.507 45.8505 140.749 31.2283C140.75 31.1616 140.771 31.0968 140.809 31.0416C140.846 30.9865 140.899 30.9433 140.96 30.9173C141.022 30.8914 141.089 30.8837 141.155 30.8953C141.221 30.9068 141.282 30.9371 141.33 30.9825L144.267 34.168C144.286 34.186 144.307 34.2022 144.329 34.2165L146.282 35.5253C146.325 35.552 146.374 35.5688 146.425 35.5745C146.476 35.5801 146.527 35.5745 146.575 35.5579C146.624 35.5414 146.668 35.5144 146.704 35.4788C146.741 35.4432 146.769 35.4 146.787 35.3522C147.729 32.5025 152.788 15.8721 143.065 14.8022Z" fill="#2B4257"/>
<path d="M124.96 33.1951C123.699 35.5911 121.414 41.2419 125.787 44.5451C129.322 47.2182 135.049 46.9343 138.311 42.2114" stroke="#586977" stroke-miterlimit="10" stroke-linecap="round"/>
<path d="M143.017 14.7917C142.445 14.6255 130.763 11.2911 126.653 15.2314C123.267 18.4758 126.861 20.9757 128.405 21.8344" stroke="#586977" stroke-miterlimit="10" stroke-linecap="round"/>
<path d="M129.433 21.1213C130.611 22.0458 132.979 23.7528 134.824 24.0922" stroke="#586977" stroke-miterlimit="10" stroke-linecap="round"/>
<path d="M133.297 27.7694C133.228 27.7139 133.165 27.6499 133.11 27.5789C133.027 27.4778 132.92 27.3976 132.8 27.3447C132.68 27.2918 132.549 27.2677 132.418 27.2742H129.028V29.6772C129.028 30.0185 129.095 30.3565 129.226 30.6718C129.357 30.9871 129.549 31.2735 129.79 31.5147C130.032 31.7559 130.318 31.9471 130.634 32.0774C130.949 32.2077 131.287 32.2745 131.629 32.2741C132.318 32.2741 132.978 32.0006 133.466 31.5137C133.954 31.0268 134.228 30.3663 134.229 29.6772C134.23 29.3091 134.147 28.9455 133.986 28.6147C133.824 28.2838 133.589 27.9946 133.297 27.7694Z" fill="#F4AB9D"/>
<path d="M133.332 27.5476C133.152 26.5781 132.207 25.9861 131.009 26.1626C130.245 26.2958 129.55 26.6855 129.039 27.2672C129.219 28.2332 130.167 28.8253 131.365 28.6314C132.126 28.5057 132.82 28.1232 133.332 27.5476Z" fill="#F7F7F7"/>
<path d="M129.039 27.2844C129.219 28.2505 130.167 28.8425 131.365 28.6486C132.128 28.5183 132.822 28.1295 133.332 27.5476" stroke="#2B4257" stroke-miterlimit="10" stroke-linecap="round"/>
<path d="M130.296 27.4161C130.426 27.4161 130.531 27.2828 130.531 27.1183C130.531 26.9539 130.426 26.8206 130.296 26.8206C130.165 26.8206 130.06 26.9539 130.06 27.1183C130.06 27.2828 130.165 27.4161 130.296 27.4161Z" fill="#2B4257"/>
<path d="M134.613 32.8591C135.608 32.8591 136.414 32.0529 136.414 31.0586C136.414 30.0642 135.608 29.2581 134.613 29.2581C133.619 29.2581 132.813 30.0642 132.813 31.0586C132.813 32.0529 133.619 32.8591 134.613 32.8591Z" fill="#E57873"/>
<path d="M128.343 24.5594C128.993 24.1537 129.738 23.9261 130.504 23.8994C131.269 23.8727 132.029 24.0477 132.705 24.4071" stroke="#2B4257" stroke-miterlimit="10" stroke-linecap="round"/>
<path d="M130.749 34.0017C130.474 34.2437 130.14 34.4086 129.78 34.4797C129.421 34.5509 129.049 34.5257 128.703 34.4068" stroke="#E9EEF2" stroke-miterlimit="10" stroke-linecap="round"/>
<path d="M143.602 32.9422C145.245 32.9422 146.576 31.6106 146.576 29.9679C146.576 28.3253 145.245 26.9937 143.602 26.9937C141.959 26.9937 140.628 28.3253 140.628 29.9679C140.628 31.6106 141.959 32.9422 143.602 32.9422Z" fill="#865A48"/>
<path d="M143.602 31.4913C144.443 31.4913 145.125 30.8092 145.125 29.9678C145.125 29.1264 144.443 28.4443 143.602 28.4443C142.76 28.4443 142.078 29.1264 142.078 29.9678C142.078 30.8092 142.76 31.4913 143.602 31.4913Z" fill="#F4AB9D"/>
<path d="M139.81 122.521C135.076 122.521 130.536 120.64 127.189 117.293C123.842 113.945 121.961 109.405 121.961 104.671V100.288H157.649V104.671C157.649 109.403 155.77 113.942 152.425 117.289C149.08 120.636 144.542 122.518 139.81 122.521Z" fill="#2B4257"/>
<path d="M155.824 57.0379C155.331 56.032 155.093 54.9201 155.132 53.8004C155.232 50.8054 153.917 47.4467 148.584 45.4558C142.404 43.1498 137.175 45.5216 133.696 48.1531C130.258 49.4105 127.29 51.6937 125.193 54.6936C123.096 57.6935 121.972 61.2653 121.972 64.9254V100.285H157.67V64.9254C157.67 62.1892 157.039 59.4899 155.824 57.0379Z" fill="#E57873"/>
<path d="M157.66 64.9254C157.663 62.19 157.035 59.4908 155.824 57.0378L157.66 64.9254Z" fill="#E57873"/>
<path d="M122.065 100.284C134.62 88.4495 137.934 63.2771 137.934 63.2771L121.972 77.0371V100.284H122.065Z" fill="#2B4257"/>
<path d="M225.705 283.891H120.888" stroke="#2B4257" stroke-miterlimit="10" stroke-linecap="round"/>
<path d="M114.053 283.891H110.178" stroke="#2B4257" stroke-miterlimit="10" stroke-linecap="round"/>
<path d="M136.358 108.2C136.358 108.2 122.678 221.77 135.745 266.09" stroke="#2B4257" stroke-miterlimit="10"/>
<path d="M160.852 272.17C134.572 218.38 127.82 115 127.546 110.623L155.191 108.892L141.362 109.761L155.184 108.892C155.246 109.907 161.87 211.167 185.734 260.013L160.852 272.17Z" fill="#2B4257"/>
<path d="M160.852 272.17C142.023 233.632 133.218 169.638 129.638 134.837" stroke="#FFF1D7" stroke-miterlimit="10" stroke-linecap="round"/>
<path d="M107.356 92.937C103.976 92.945 100.695 91.7952 98.0596 89.6787C86.6333 80.5897 74.6704 56.501 73.3442 53.7864L88.8978 46.1689C93.0528 54.6451 101.64 69.5478 107.9 75.3094C109.264 74.6169 112.491 72.5117 117.782 66.0368C120.507 62.6767 123.032 59.1597 125.344 55.5039L140.091 64.5756C137.401 68.8463 134.46 72.9532 131.282 76.8744C123.557 86.3582 116.636 91.5243 110.126 92.6634C109.213 92.8345 108.286 92.926 107.356 92.937Z" fill="#E57873"/>
<path d="M106.657 76.5004C108.198 75.7421 111.826 73.353 117.782 66.0645" stroke="#FFF1D7" stroke-miterlimit="10" stroke-linecap="round"/>
<path d="M140.091 64.6032C137.401 68.874 134.46 72.9808 131.282 76.902C123.557 86.3858 116.636 91.5519 110.126 92.691C109.212 92.8528 108.285 92.9351 107.356 92.9369C103.976 92.945 100.695 91.7951 98.0596 89.6787C86.6333 80.5896 74.6704 56.501 73.3442 53.7864" stroke="#2B4257" stroke-miterlimit="10" stroke-linecap="round"/>
<path d="M157.66 100.284V64.9254C157.663 62.19 157.035 59.4908 155.824 57.0378" stroke="#2B4257" stroke-miterlimit="10" stroke-linecap="round"/>
<path d="M135.604 111.403C135.604 111.403 139.897 120.72 146.085 121.385" stroke="#FFF1D7" stroke-miterlimit="10" stroke-linecap="round"/>
<path d="M146.084 121.385C146.084 121.385 154.457 214.499 173.31 258.24" stroke="#FFF1D7" stroke-miterlimit="10" stroke-linecap="round" stroke-dasharray="6 6"/>
<path d="M131.04 147.502C131.04 147.502 130.14 225.793 136.358 258.226" stroke="#FFF1D7" stroke-miterlimit="10" stroke-linecap="round" stroke-dasharray="6 6"/>
<path d="M12.2241 17.5757H32.2997H75.529" stroke="#2B4257" stroke-miterlimit="10" stroke-linecap="round"/>
<path d="M32.646 22.9841C34.6539 22.9841 36.2816 20.5627 36.2816 17.5757C36.2816 14.5887 34.6539 12.1672 32.646 12.1672C30.6381 12.1672 29.0104 14.5887 29.0104 17.5757C29.0104 20.5627 30.6381 22.9841 32.646 22.9841Z" fill="#E57873"/>
<path d="M27.7985 17.5757H32.0677" stroke="#2B4257" stroke-miterlimit="10" stroke-linecap="round"/>
<path d="M42.1679 22.9841C44.1758 22.9841 45.8035 20.5627 45.8035 17.5757C45.8035 14.5887 44.1758 12.1672 42.1679 12.1672C40.16 12.1672 38.5322 14.5887 38.5322 17.5757C38.5322 20.5627 40.16 22.9841 42.1679 22.9841Z" fill="#6CC4BF"/>
<path d="M37.3203 17.5757H41.5896" stroke="#2B4257" stroke-miterlimit="10" stroke-linecap="round"/>
<path d="M51.6897 22.9841C53.6976 22.9841 55.3253 20.5627 55.3253 17.5757C55.3253 14.5887 53.6976 12.1672 51.6897 12.1672C49.6818 12.1672 48.0541 14.5887 48.0541 17.5757C48.0541 20.5627 49.6818 22.9841 51.6897 22.9841Z" fill="#628ECC"/>
<path d="M46.8423 17.5757H51.1116" stroke="#2B4257" stroke-miterlimit="10" stroke-linecap="round"/>
<path d="M12.2241 34.5903H32.2997H75.529" stroke="#2B4257" stroke-miterlimit="10" stroke-linecap="round"/>
<path d="M41.1292 39.9987C43.1371 39.9987 44.7648 37.5773 44.7648 34.5903C44.7648 31.6033 43.1371 29.1819 41.1292 29.1819C39.1213 29.1819 37.4935 31.6033 37.4935 34.5903C37.4935 37.5773 39.1213 39.9987 41.1292 39.9987Z" fill="#6CC4BF"/>
<path d="M36.2816 34.5903H40.5509" stroke="#2B4257" stroke-miterlimit="10" stroke-linecap="round"/>
<path d="M50.4432 39.9987C52.4511 39.9987 54.0789 37.5773 54.0789 34.5903C54.0789 31.6033 52.4511 29.1819 50.4432 29.1819C48.4353 29.1819 46.8076 31.6033 46.8076 34.5903C46.8076 37.5773 48.4353 39.9987 50.4432 39.9987Z" fill="#628ECC"/>
<path d="M45.5957 34.5903H49.8684" stroke="#2B4257" stroke-miterlimit="10" stroke-linecap="round"/>
<path d="M64.0024 39.9987C66.0103 39.9987 67.6381 37.5773 67.6381 34.5903C67.6381 31.6033 66.0103 29.1819 64.0024 29.1819C61.9945 29.1819 60.3668 31.6033 60.3668 34.5903C60.3668 37.5773 61.9945 39.9987 64.0024 39.9987Z" fill="#E57873"/>
<path d="M59.1549 34.5903H63.4242" stroke="#2B4257" stroke-miterlimit="10" stroke-linecap="round"/>
<path d="M12.2241 51.6016H32.2997H75.529" stroke="#2B4257" stroke-miterlimit="10" stroke-linecap="round"/>
<path d="M38.0994 57.01C40.1073 57.01 41.735 54.5885 41.735 51.6015C41.735 48.6145 40.1073 46.1931 38.0994 46.1931C36.0915 46.1931 34.4637 48.6145 34.4637 51.6015C34.4637 54.5885 36.0915 57.01 38.0994 57.01Z" fill="#628ECC"/>
<path d="M33.252 51.6016H37.5212" stroke="#2B4257" stroke-miterlimit="10" stroke-linecap="round"/>
<path d="M49.3906 57.01C51.3985 57.01 53.0263 54.5885 53.0263 51.6015C53.0263 48.6145 51.3985 46.1931 49.3906 46.1931C47.3827 46.1931 45.755 48.6145 45.755 51.6015C45.755 54.5885 47.3827 57.01 49.3906 57.01Z" fill="#E57873"/>
<path d="M44.5431 51.6016H48.8158" stroke="#2B4257" stroke-miterlimit="10" stroke-linecap="round"/>
<path d="M66.1388 57.01C68.1467 57.01 69.7744 54.5885 69.7744 51.6015C69.7744 48.6145 68.1467 46.1931 66.1388 46.1931C64.1309 46.1931 62.5032 48.6145 62.5032 51.6015C62.5032 54.5885 64.1309 57.01 66.1388 57.01Z" fill="#6CC4BF"/>
<path d="M61.2913 51.6016H65.5605" stroke="#2B4257" stroke-miterlimit="10" stroke-linecap="round"/>
<path d="M12.2241 68.6165H32.2997H75.529" stroke="#2B4257" stroke-miterlimit="10" stroke-linecap="round"/>
<path d="M32.646 74.0249C34.6539 74.0249 36.2816 71.6034 36.2816 68.6164C36.2816 65.6294 34.6539 63.208 32.646 63.208C30.6381 63.208 29.0104 65.6294 29.0104 68.6164C29.0104 71.6034 30.6381 74.0249 32.646 74.0249Z" fill="#6CC4BF"/>
<path d="M27.7985 68.6165H32.0677" stroke="#2B4257" stroke-miterlimit="10" stroke-linecap="round"/>
<path d="M45.3707 74.0249C47.3786 74.0249 49.0064 71.6034 49.0064 68.6164C49.0064 65.6294 47.3786 63.208 45.3707 63.208C43.3628 63.208 41.7351 65.6294 41.7351 68.6164C41.7351 71.6034 43.3628 74.0249 45.3707 74.0249Z" fill="#E57873"/>
<path d="M40.5232 68.6165H44.7925" stroke="#2B4257" stroke-miterlimit="10" stroke-linecap="round"/>
<path d="M66.1665 74.0249C68.1744 74.0249 69.8021 71.6034 69.8021 68.6164C69.8021 65.6294 68.1744 63.208 66.1665 63.208C64.1586 63.208 62.5309 65.6294 62.5309 68.6164C62.5309 71.6034 64.1586 74.0249 66.1665 74.0249Z" fill="#628ECC"/>
<path d="M61.319 68.6165H65.5882" stroke="#2B4257" stroke-miterlimit="10" stroke-linecap="round"/>
<path d="M12.2241 85.6311H32.2997H75.529" stroke="#2B4257" stroke-miterlimit="10" stroke-linecap="round"/>
<path d="M44.4808 91.0395C46.4887 91.0395 48.1165 88.6181 48.1165 85.6311C48.1165 82.6441 46.4887 80.2227 44.4808 80.2227C42.4729 80.2227 40.8452 82.6441 40.8452 85.6311C40.8452 88.6181 42.4729 91.0395 44.4808 91.0395Z" fill="#628ECC"/>
<path d="M39.6333 85.6311H43.906" stroke="#2B4257" stroke-miterlimit="10" stroke-linecap="round"/>
<path d="M59.2415 91.0395C61.2494 91.0395 62.8771 88.6181 62.8771 85.6311C62.8771 82.6441 61.2494 80.2227 59.2415 80.2227C57.2336 80.2227 55.6058 82.6441 55.6058 85.6311C55.6058 88.6181 57.2336 91.0395 59.2415 91.0395Z" fill="#6CC4BF"/>
<path d="M54.3939 85.6311H58.6632" stroke="#2B4257" stroke-miterlimit="10" stroke-linecap="round"/>
<path d="M68.7633 91.0395C70.7712 91.0395 72.3989 88.6181 72.3989 85.6311C72.3989 82.6441 70.7712 80.2227 68.7633 80.2227C66.7554 80.2227 65.1277 82.6441 65.1277 85.6311C65.1277 88.6181 66.7554 91.0395 68.7633 91.0395Z" fill="#E57873"/>
<path d="M63.9159 85.6311H68.1852" stroke="#2B4257" stroke-miterlimit="10" stroke-linecap="round"/>
<path d="M12.2241 102.646H32.2997H75.529" stroke="#2B4257" stroke-miterlimit="10" stroke-linecap="round"/>
<path d="M32.646 108.054C34.6539 108.054 36.2816 105.633 36.2816 102.646C36.2816 99.6587 34.6539 97.2373 32.646 97.2373C30.6381 97.2373 29.0104 99.6587 29.0104 102.646C29.0104 105.633 30.6381 108.054 32.646 108.054Z" fill="#628ECC"/>
<path d="M27.7985 102.646H32.0677" stroke="#2B4257" stroke-miterlimit="10" stroke-linecap="round"/>
<path d="M51.1704 108.054C53.1783 108.054 54.806 105.633 54.806 102.646C54.806 99.6587 53.1783 97.2373 51.1704 97.2373C49.1625 97.2373 47.5348 99.6587 47.5348 102.646C47.5348 105.633 49.1625 108.054 51.1704 108.054Z" fill="#6CC4BF"/>
<path d="M46.3229 102.646H50.5921" stroke="#2B4257" stroke-miterlimit="10" stroke-linecap="round"/>
<path d="M60.6923 108.054C62.7002 108.054 64.3279 105.633 64.3279 102.646C64.3279 99.6587 62.7002 97.2373 60.6923 97.2373C58.6844 97.2373 57.0566 99.6587 57.0566 102.646C57.0566 105.633 58.6844 108.054 60.6923 108.054Z" fill="#E57873"/>
<path d="M55.8447 102.646H60.114" stroke="#2B4257" stroke-miterlimit="10" stroke-linecap="round"/>
<path d="M24.3533 12.1326C24.3533 5.43195 18.9221 0 12.2224 0C5.52273 0 0.0915527 5.43195 0.0915527 12.1326V109.834C0.0915527 116.535 5.52273 121.967 12.2224 121.967C18.9221 121.967 24.3533 116.535 24.3533 109.834V12.1326Z" fill="#EFEEED"/>
<path d="M178.59 277.554C180.382 277.554 181.835 276.102 181.835 274.31C181.835 272.518 180.382 271.065 178.59 271.065C176.799 271.065 175.346 272.518 175.346 274.31C175.346 276.102 176.799 277.554 178.59 277.554Z" fill="#2B4257"/>
</svg>
